<svg width="17" height="16" viewBox="0 0 17 16" fill="none" xmlns="http://www.w3.org/2000/svg">
<path d="M14 7V4" stroke="black" stroke-linecap="round" stroke-linejoin="round"/>
<path d="M15.5 5.5H12.5" stroke="black" stroke-linecap="round" stroke-linejoin="round"/>
<path d="M11 1.5V3.5" stroke="black" stroke-linecap="round" stroke-linejoin="round"/>
<path d="M12 2.5H10" stroke="black" stroke-linecap="round" stroke-linejoin="round"/>
<path d="M14.0437 9.53749C13.062 9.81277 12.0248 9.82179 11.0385 9.56363C10.0522 9.30546 9.15235 8.78943 8.43143 8.06851C7.71052 7.34759 7.19448 6.44777 6.93632 5.46146C6.67816 4.47516 6.68718 3.43791 6.96245 2.45624C5.99462 2.72562 5.11425 3.24388 4.40904 3.95938C3.70383 4.67489 3.1984 5.56268 2.94307 6.53432C2.68775 7.50595 2.69145 8.52753 2.95381 9.49729C3.21617 10.4671 3.72803 11.3512 4.43841 12.0615C5.14879 12.7719 6.03289 13.2838 7.00265 13.5461C7.97241 13.8085 8.99399 13.8122 9.96563 13.5569C10.9373 13.3015 11.8251 12.7961 12.5406 12.0909C13.2561 11.3857 13.7743 10.5053 14.0437 9.53749Z" stroke="black" stroke-linecap="round" stroke-linejoin="round"/>
</svg>
